<svg xmlns="http://www.w3.org/2000/svg" width="16" height="16" viewBox="0 0 16 16">
  <g id="Group_10117" data-name="Group 10117" transform="translate(-1724 -530)">
    <path id="Path_5016" data-name="Path 5016" d="M3.5,16a.5.5,0,0,1-.5-.5V.5a.5.5,0,0,1,1,0v15a.5.5,0,0,1-.5.5" transform="translate(1724 530)" fill="#001738"/>
    <path id="Path_5017" data-name="Path 5017" d="M12.5,16a.5.5,0,0,1-.5-.5V.5a.5.5,0,0,1,1,0v15a.5.5,0,0,1-.5.5" transform="translate(1724 530)" fill="#001738"/>
    <path id="Path_5018" data-name="Path 5018" d="M6.5,12.5H.5a.5.5,0,0,1,0-1h6a.5.5,0,0,1,0,1" transform="translate(1724 530)" fill="#001738"/>
    <path id="Path_5019" data-name="Path 5019" d="M15.5,4.5h-6a.5.5,0,0,1,0-1h6a.5.5,0,0,1,0,1" transform="translate(1724 530)" fill="#001738"/>
  </g>
</svg>
